<?xml version="1.0" encoding="utf-8"?>
<!-- Generator: Adobe Illustrator 16.0.0, SVG Export Plug-In . SVG Version: 6.00 Build 0)  -->
<!DOCTYPE svg PUBLIC "-//W3C//DTD SVG 1.1//EN" "http://www.w3.org/Graphics/SVG/1.1/DTD/svg11.dtd">
<svg version="1.1" id="Capa_1" xmlns="http://www.w3.org/2000/svg" xmlns:xlink="http://www.w3.org/1999/xlink" x="0px" y="0px"
	 width="320px" height="207.129px" viewBox="0 0 320 207.129" enable-background="new 0 0 320 207.129" xml:space="preserve">
<g>
	<g>
		<path fill="#F3C23C" d="M183.82,161.372c-1.479,2.401-3.1,4.889-4.846,7.453c14.715,2.211,22.273,6.922,22.273,9.26
			c0,3.146-13.357,10.465-39.264,10.465c-25.91,0-39.268-7.318-39.268-10.465c0-2.338,7.537-7.063,22.27-9.26
			c-1.753-2.578-3.367-5.052-4.853-7.453c-14.537,2.758-25.632,8.377-25.632,16.741c0,12.265,23.895,18.658,47.48,18.658
			c23.597,0,47.479-6.416,47.479-18.658C209.449,169.749,198.367,164.114,183.82,161.372z"/>
		<path fill="#D80F32" d="M161.979,177.321c2.133,0,4.143-1.014,5.408-2.74c8.072-11.021,22.354-32.067,22.354-43.074
			c0-15.326-12.433-27.775-27.755-27.775c-15.336,0-27.772,12.436-27.772,27.775c0,11.007,14.284,32.053,22.357,43.074
			C157.833,176.308,159.847,177.321,161.979,177.321z M150.425,130.967c0-6.389,5.166-11.555,11.548-11.555
			c6.373,0,11.547,5.166,11.547,11.555c0,6.365-5.174,11.546-11.547,11.546C155.599,142.513,150.425,137.333,150.425,130.967z"/>
	</g>
</g>
<g>
	<path fill="#184978" d="M308.947,89.763c0.121-0.498,0.092-1.044-0.15-1.507l-14.494-29.445c0-0.014,0-0.014,0-0.014
		c-0.1-0.181-0.199-0.333-0.326-0.472c-0.043-0.036-0.096-0.079-0.137-0.125c-0.105-0.106-0.232-0.196-0.375-0.281
		c-0.031-0.024-0.061-0.053-0.086-0.066c-0.156-0.089-0.313-0.153-0.477-0.196l-51.309-13.752c-2.338-0.626-4.756,0.771-5.377,3.115
		l-26.74,99.771c-0.625,2.338,0.771,4.754,3.113,5.379l70.064,18.771c2.332,0.639,4.738-0.761,5.375-3.12l20.838-77.818
		C308.912,89.933,308.912,89.833,308.947,89.763z M222.289,116.017l18.186-67.849l49.182,13.185l-5.818,21.717
		c-0.314,1.166,0.377,2.38,1.547,2.699l18.76,5.017l-11.789,44.003L222.289,116.017z"/>
	<path fill="#F8AB18" d="M240.878,95.313c2.771,0.703,3.48-0.704,3.809-1.954c0.277-1.037,0.438-2.132,0.625-3.219
		c0.137-1.144,0.285-2.237,0.561-3.26c0.988-3.681,3.775-4.633,7.271-3.696l1.143,0.306l-0.76,2.835l-0.711-0.185
		c-2.047-0.547-3.049,0.397-3.566,2.331c-0.199,0.781-0.313,1.642-0.398,2.543c-0.154,0.888-0.242,1.876-0.51,2.9
		c-0.705,2.757-2.203,3.624-4.334,3.552l-0.023,0.085c1.877,1.017,2.738,2.544,1.969,5.279c-0.297,1.073-0.703,1.967-1.016,2.806
		c-0.383,0.823-0.732,1.62-0.93,2.417c-0.525,1.96-0.059,3.303,1.918,3.837l0.709,0.184l-0.754,2.8l-1.135-0.313
		c-3.426-0.91-5.484-2.979-4.412-6.949c0.271-0.98,0.684-2.046,1.113-3.07c0.414-1.037,0.781-2.018,1.066-3.041
		c0.307-1.145,0.441-2.843-2.305-3.624L240.878,95.313z"/>
	<path fill="#F8AB18" d="M285.206,109.943c-2.742-0.688-3.529,0.853-3.828,1.981c-0.271,1.031-0.398,2.096-0.553,3.19
		c-0.16,1.087-0.313,2.252-0.57,3.22c-1.064,4-3.908,4.768-7.332,3.843l-1.15-0.304l0.754-2.821l0.711,0.19
		c1.98,0.49,3.039-0.418,3.559-2.38c0.219-0.78,0.313-1.661,0.434-2.558c0.129-0.895,0.256-1.876,0.539-2.941
		c0.697-2.777,2.217-3.674,4.307-3.632l0.016-0.069c-1.834-1.018-2.691-2.522-1.918-5.267c0.27-1.03,0.654-1.947,0.994-2.771
		c0.342-0.852,0.703-1.641,0.908-2.43c0.512-1.933,0.115-3.24-1.902-3.809l-0.727-0.184l0.754-2.85l1.162,0.306
		c3.5,0.944,5.445,3.168,4.457,6.863c-0.275,1.031-0.717,2.061-1.143,3.133c-0.4,1.031-0.824,2.054-1.107,3.084
		c-0.342,1.265-0.398,2.851,2.322,3.624L285.206,109.943z"/>
	<g enable-background="new    ">
		<path fill="#FFFFFF" d="M222.484,137.426l0.49-1.827l5.066,1.358c-0.354,1.31-0.867,2.287-1.547,2.928
			c-0.682,0.64-1.529,1.059-2.555,1.255c-1.021,0.2-2.094,0.147-3.219-0.154c-1.955-0.524-3.314-1.448-4.078-2.774
			c-0.762-1.326-0.93-2.797-0.494-4.408c0.301-1.12,0.822-2.039,1.57-2.76c0.746-0.717,1.615-1.176,2.607-1.377
			s2.002-0.164,3.029,0.112c1.453,0.388,2.486,1.042,3.105,1.966l0.238-0.888l1.834,0.491l-1.029,3.841l-1.834-0.491
			c-0.018-0.699-0.264-1.313-0.732-1.837c-0.471-0.526-1.031-0.878-1.688-1.052c-0.855-0.23-1.672-0.125-2.443,0.322
			c-0.766,0.447-1.301,1.209-1.586,2.289c-0.33,1.231-0.273,2.254,0.172,3.064c0.441,0.811,1.107,1.335,1.994,1.573
			c0.652,0.174,1.234,0.161,1.752-0.04c0.518-0.2,0.93-0.563,1.248-1.081L222.484,137.426z"/>
		<path fill="#FFFFFF" d="M234.557,142.12l1.709,1.099c-1.113,1.019-2.5,1.304-4.164,0.858c-1.326-0.355-2.27-0.982-2.822-1.882
			c-0.559-0.897-0.684-1.918-0.379-3.058c0.311-1.161,0.955-2.028,1.932-2.6c0.975-0.57,2.055-0.701,3.242-0.382
			c0.861,0.231,1.545,0.648,2.055,1.251c0.512,0.604,0.805,1.262,0.871,1.975c0.068,0.715,0,1.47-0.215,2.267l-5.604-1.501
			c-0.148,0.695-0.063,1.238,0.26,1.628c0.318,0.39,0.701,0.646,1.139,0.763C233.154,142.692,233.814,142.553,234.557,142.12z
			 M234.725,139.665c0.057-0.437-0.012-0.836-0.205-1.205s-0.525-0.616-0.998-0.744c-0.881-0.235-1.527,0.134-1.943,1.104
			L234.725,139.665z"/>
		<path fill="#FFFFFF" d="M240.963,146.452c-1.109-0.298-1.949-0.898-2.529-1.808c-0.574-0.906-0.699-1.97-0.369-3.194
			c0.328-1.222,0.967-2.082,1.916-2.58c0.957-0.498,1.982-0.598,3.096-0.301c1.115,0.301,1.957,0.901,2.531,1.807
			c0.572,0.908,0.697,1.974,0.369,3.195c-0.322,1.208-0.957,2.065-1.9,2.575C243.129,146.652,242.092,146.754,240.963,146.452z
			 M241.455,144.583c0.445,0.121,0.852,0.045,1.221-0.221c0.371-0.269,0.65-0.769,0.85-1.498c0.172-0.643,0.172-1.18-0.002-1.613
			c-0.174-0.432-0.492-0.709-0.951-0.832c-0.99-0.267-1.676,0.315-2.061,1.746c-0.156,0.586-0.162,1.104-0.02,1.551
			C240.639,144.161,240.957,144.452,241.455,144.583z"/>
		<path fill="#FFFFFF" d="M244.621,150.606l0.525-1.959c0.281,0.17,0.541,0.287,0.775,0.35c0.43,0.113,0.77,0.08,1.021-0.11
			c0.248-0.188,0.453-0.583,0.615-1.183l2.324-8.678l-1.609-0.431l0.49-1.827l5.893,1.579l-0.49,1.827l-1.469-0.396l-2.352,8.777
			c-0.322,1.2-0.854,2.016-1.59,2.437c-0.736,0.42-1.592,0.504-2.561,0.243C245.709,151.106,245.186,150.897,244.621,150.606z"/>
		<path fill="#FFFFFF" d="M252.787,149.436l0.986-3.686l1.836,0.492c-0.16,0.68-0.115,1.223,0.127,1.631
			c0.248,0.407,0.586,0.668,1.01,0.781c0.33,0.09,0.643,0.049,0.934-0.121c0.289-0.169,0.475-0.41,0.559-0.722
			c0.088-0.331,0.053-0.64-0.109-0.925c-0.162-0.286-0.504-0.65-1.018-1.098c-1.088-0.937-1.795-1.696-2.117-2.277
			c-0.324-0.582-0.381-1.266-0.17-2.049c0.252-0.946,0.744-1.6,1.475-1.959c0.73-0.362,1.471-0.441,2.223-0.241
			c0.857,0.231,1.434,0.746,1.729,1.543l0.24-0.897l1.824,0.488l-0.881,3.29l-1.824-0.49c0.076-0.524,0.008-0.963-0.211-1.317
			c-0.219-0.356-0.521-0.586-0.912-0.689c-0.301-0.08-0.576-0.068-0.824,0.037s-0.412,0.288-0.479,0.546
			c-0.063,0.222-0.033,0.458,0.086,0.703c0.117,0.246,0.545,0.662,1.275,1.251c0.703,0.57,1.23,1.055,1.578,1.458
			c0.35,0.403,0.588,0.866,0.715,1.392c0.125,0.526,0.105,1.09-0.055,1.692c-0.287,1.067-0.813,1.788-1.582,2.161
			c-0.762,0.374-1.574,0.445-2.424,0.217c-0.947-0.253-1.584-0.8-1.908-1.641l-0.246,0.922L252.787,149.436z"/>
		<path fill="#FFFFFF" d="M270.223,142.334c1.863,0.5,3.189,1.432,3.971,2.797s0.963,2.822,0.547,4.371
			c-0.416,1.555-1.303,2.727-2.666,3.516c-1.357,0.787-2.971,0.932-4.83,0.434c-1.936-0.518-3.27-1.469-4.01-2.852
			c-0.742-1.387-0.912-2.824-0.512-4.316c0.414-1.544,1.297-2.715,2.652-3.511S268.346,141.833,270.223,142.334z M269.693,144.309
			c-0.828-0.221-1.615-0.1-2.363,0.366c-0.744,0.468-1.273,1.303-1.598,2.506c-0.283,1.062-0.229,1.987,0.172,2.778
			c0.398,0.789,1.02,1.3,1.867,1.524c0.828,0.222,1.617,0.101,2.359-0.371c0.752-0.469,1.283-1.292,1.598-2.468
			c0.283-1.051,0.232-1.979-0.145-2.78C271.201,145.064,270.574,144.545,269.693,144.309z"/>
		<path fill="#FFFFFF" d="M274.508,155.254l0.488-1.826l1.445,0.388l1.92-7.159l-1.447-0.387l0.492-1.828l4.543,1.219l2.17,7.809
			l1.318-4.917l-1.408-0.377l0.492-1.828l4.85,1.3l-0.49,1.828l-1.516-0.406l-2.428,9.064l-2.41-0.646l-2.52-9.265l-1.637,6.11
			l1.359,0.363l-0.488,1.828L274.508,155.254z"/>
	</g>
	<path fill="#00ABD8" d="M250.767,95.562l17.486,8.477c0.191,0.092,0.463,0.135,0.584,0.049l8.74-4.533c0,0,0.529-0.157-0.094-0.454
		c-0.613-0.299-17.338-8.413-17.338-8.413c-0.213-0.1-0.471-0.128-0.582-0.071l-8.961,4.654
		C250.497,95.333,250.54,95.462,250.767,95.562z M260.503,91.824l15.146,7.347l-5.891,3.055l-1.086-0.54
		c0.328-0.81,0.908-1.919-0.482-2.402c-1.621-0.567-4.277,0.113-4.277,0.113s1.467-1.507,0.66-3.083
		c-0.814-1.577-7.313-0.149-7.313-0.149l-2.645-1.28L260.503,91.824z"/>
	<path fill="#0067A6" d="M269.448,97.97c0.283,0.149,0.555,0.255,0.816,0.348c0.184,0.17,0.467,0.355,0.838,0.519
		c0.912,0.448,1.926,0.661,2.238,0.49c0.326-0.162-0.148-0.668-1.059-1.101c-0.355-0.164-0.705-0.306-1.029-0.405
		c-0.053-0.071-0.15-0.171-0.32-0.255l-0.242-0.1c-0.307-0.156-0.684-0.199-0.889-0.134c-0.787-0.334-1.498-0.513-1.67-0.419
		C267.907,97.039,268.497,97.509,269.448,97.97z"/>
	<path fill="#EFC028" d="M267.353,109.645l8.738-4.534c0,0,0.525-0.155-0.102-0.448c-0.141-0.092-1.207-0.596-2.74-1.343
		l-3.994,2.076c-0.461,0.24-0.967,0.147-1.207,0.084c-0.143-0.042-0.258-0.084-0.375-0.127l-14.119-6.85l-4.43,2.316
		c-0.135,0.071-0.063,0.192,0.15,0.298l17.486,8.456C266.954,109.672,267.224,109.702,267.353,109.645z"/>
	<path fill="#F2572D" d="M275.04,110.424c-0.154-0.063-1.209-0.588-2.758-1.321l-4,2.076c-0.461,0.227-0.943,0.149-1.207,0.092
		c-0.137-0.036-0.248-0.092-0.363-0.149l-14.109-6.826l-4.449,2.309c-0.113,0.042-0.041,0.186,0.148,0.298l17.492,8.456
		c0.193,0.1,0.465,0.127,0.584,0.057l8.732-4.533C275.11,110.879,275.665,110.731,275.04,110.424z"/>
</g>
<g>
	<path d="M89.846,125.261c-1.293,0.342-2.104,0.668-2.57,0.924l4.505,16.79c0.522-0.021,1.325-0.229,2.042-0.434
		c5.263-1.373,7.92-5.188,6.275-11.313C98.708,125.901,94.836,123.933,89.846,125.261z"/>
	<path fill="#184978" d="M95.113,66.336c-0.146-0.494-0.43-0.938-0.874-1.235L67.085,46.917h-0.014
		c-0.158-0.11-0.332-0.188-0.516-0.241c-0.051-0.016-0.102-0.029-0.154-0.042c-0.151-0.043-0.305-0.058-0.457-0.058
		c-0.046-0.007-0.094-0.018-0.13-0.007c-0.16,0-0.332,0.028-0.498,0.071l-51.09,13.685c-2.328,0.636-3.716,3.026-3.092,5.365
		l26.631,99.361c0.627,2.33,3.028,3.732,5.354,3.104l69.777-18.7c2.321-0.625,3.712-3.006,3.093-5.352L95.215,66.592
		C95.178,66.489,95.149,66.412,95.113,66.336z M33.449,132.12L15.348,64.545L64.32,51.422l5.799,21.636
		c0.314,1.165,1.514,1.857,2.688,1.552l18.677-5.009l11.732,43.823L33.449,132.12z"/>
	<path fill="#00ABD8" d="M35.108,94.835l31.68-2.302c0.365-0.027,0.755-0.198,0.88-0.396l8.664-13.572c0,0,0.624-0.655-0.484-0.569
		c-1.113,0.086-31.417,2.267-31.417,2.267c-0.38,0.022-0.774,0.193-0.895,0.385L34.657,94.56
		C34.532,94.722,34.732,94.857,35.108,94.835z M45.819,81.62l27.46-2.004l-5.819,9.125l-2.014,0.142
		c-0.194-1.421-0.273-3.453-2.638-3.013c-2.763,0.519-5.991,3.652-5.991,3.652s0.875-3.325-1.571-4.903
		c-2.434-1.576-10.46,5.771-10.46,5.771l-4.79,0.354L45.819,81.62z"/>
	<path fill="#0067A6" d="M63.515,82.949c0.508-0.035,0.994-0.092,1.447-0.164c0.422,0.072,0.976,0.086,1.623,0.043
		c1.645-0.121,3.243-0.625,3.563-1.137c0.318-0.497-0.758-0.81-2.4-0.696c-0.629,0.042-1.238,0.156-1.774,0.284
		c-0.13-0.093-0.359-0.134-0.658-0.114l-0.434,0.036c-0.553,0.043-1.13,0.284-1.361,0.561c-1.392,0.17-2.538,0.498-2.726,0.782
		C60.58,82.885,61.795,83.07,63.515,82.949z"/>
	<path fill="#EFC028" d="M70.092,101.209l8.664-13.577c0,0,0.625-0.647-0.486-0.57c-0.277,0.015-2.207,0.158-4.984,0.37
		l-3.957,6.195c-0.45,0.711-1.222,1.009-1.637,1.109c-0.205,0.057-0.425,0.093-0.634,0.114l-25.563,1.862l-4.409,6.899
		c-0.117,0.191,0.083,0.319,0.459,0.29l31.671-2.301C69.585,101.565,69.98,101.388,70.092,101.209z"/>
	<path fill="#F2572D" d="M81.609,96.044c-0.263,0.028-2.198,0.157-4.979,0.356l-3.963,6.21c-0.453,0.71-1.223,1.002-1.639,1.108
		c-0.203,0.057-0.429,0.098-0.633,0.113L44.829,105.7l-4.41,6.899c-0.109,0.187,0.097,0.313,0.459,0.285l31.678-2.304
		c0.373-0.027,0.772-0.196,0.896-0.396l8.657-13.58C82.104,96.613,82.737,95.959,81.609,96.044z"/>
	<g enable-background="new    ">
		<path fill="#FFFFFF" d="M49.311,157.112l-1.769-6.605l3.289-0.881c0.361,1.195,0.915,2.002,1.664,2.414
			c0.746,0.412,1.5,0.517,2.265,0.312c0.591-0.16,1.039-0.5,1.337-1.022c0.298-0.522,0.372-1.063,0.224-1.621
			c-0.161-0.597-0.497-1.041-1.001-1.338c-0.509-0.297-1.362-0.562-2.563-0.793c-2.53-0.479-4.308-1.026-5.331-1.64
			c-1.023-0.614-1.724-1.624-2.099-3.028c-0.454-1.695-0.276-3.148,0.535-4.363c0.81-1.215,1.888-2.002,3.234-2.364
			c1.541-0.413,2.898-0.129,4.067,0.846l-0.433-1.608l3.276-0.879l1.58,5.896l-3.275,0.876c-0.347-0.881-0.848-1.5-1.507-1.857
			c-0.659-0.356-1.336-0.44-2.034-0.254c-0.539,0.145-0.957,0.41-1.248,0.797c-0.295,0.389-0.382,0.813-0.257,1.278
			c0.107,0.399,0.362,0.736,0.763,1.013c0.404,0.276,1.438,0.541,3.1,0.799c1.606,0.254,2.86,0.537,3.763,0.849
			c0.903,0.312,1.69,0.819,2.354,1.522c0.667,0.703,1.145,1.595,1.434,2.674c0.513,1.914,0.343,3.506-0.515,4.771
			c-0.856,1.266-2.045,2.104-3.568,2.512c-1.7,0.455-3.178,0.176-4.436-0.836l0.441,1.651L49.311,157.112z"/>
		<path fill="#FFFFFF" d="M63.987,153.178l-0.878-3.274l2.426-0.649l-3.438-12.836l-2.426,0.649l-0.878-3.274l9.366-2.51
			l0.877,3.275l-2.033,0.545l1.139,4.25l5.283-1.415l-1.141-4.25l-1.965,0.526l-0.878-3.274l9.295-2.489l0.878,3.274l-2.424,0.649
			l3.44,12.836l2.424-0.649l0.877,3.274l-9.298,2.49l-0.875-3.275l1.963-0.526l-1.416-5.295l-5.283,1.416l1.418,5.295l2.036-0.545
			l0.877,3.274L63.987,153.178z"/>
		<path fill="#FFFFFF" d="M94.982,141.364l0.878,3.276l-10.213,2.735l-0.881-3.273l2.467-0.661l-3.439-12.835l-2.465,0.66
			l-0.88-3.273l10.217-2.736c2.378-0.637,4.364-0.573,5.961,0.195c1.594,0.768,2.646,2.094,3.148,3.98
			c0.289,1.076,0.323,2.115,0.104,3.115c-0.223,1-0.623,1.83-1.209,2.49c-0.584,0.66-1.312,1.199-2.181,1.616
			c-0.871,0.416-1.99,0.81-3.366,1.177l-1.854,0.498l1.009,3.762L94.982,141.364z M90.403,135.093l0.754-0.202
			c1.729-0.463,2.765-1.042,3.109-1.739c0.348-0.694,0.409-1.46,0.187-2.297c-0.192-0.706-0.522-1.261-1-1.666
			s-0.954-0.604-1.433-0.603c-0.475,0.002-1.22,0.141-2.232,0.412l-0.949,0.252L90.403,135.093z"/>
	</g>
</g>
<path fill="#38B1E0" d="M116.671,57.853l-1.82,5.087c17.689-13.301,33.888-10.349,48.022-5.664l-4.553,12.669
	c-0.468,1.293-0.444,2.771,0.202,4.125c0.631,1.354,1.76,2.32,3.061,2.789c1.313,0.455,2.788,0.433,4.138-0.199l43.389-20.087
	l-20.676-43.104c-0.635-1.346-1.763-2.32-3.063-2.785c-1.313-0.473-2.792-0.444-4.13,0.195c-1.369,0.64-2.307,1.762-2.782,3.062
	l-4.688,13.032C149.938,21.271,125.153,34.248,116.671,57.853z"/>
</svg>
